<svg height="512pt" viewBox="-26 0 512 512" width="512pt" xmlns="http://www.w3.org/2000/svg"><path d="m415.058594 256c3.738281-4.414062 7.296875-8.839844 10.632812-13.265625 33.683594-44.671875 42.910156-85.417969 25.988282-114.734375-16.925782-29.3125-56.828126-41.695312-112.355469-34.859375-5.503907.675781-11.113281 1.542969-16.808594 2.574219-1.949219-5.445313-4.003906-10.738282-6.171875-15.84375-21.847656-51.507813-52.519531-79.871094-86.367188-79.871094-33.851562 0-64.523437 28.363281-86.371093 79.871094-2.164063 5.105468-4.21875 10.398437-6.171875 15.84375-5.691406-1.03125-11.300782-1.898438-16.804688-2.578125-55.53125-6.832031-95.429687 5.550781-112.355468 34.863281-16.925782 29.3125-7.695313 70.058594 25.984374 114.730469 3.339844 4.429687 6.894532 8.855469 10.636719 13.269531-3.742187 4.414062-7.296875 8.839844-10.636719 13.265625-33.679687 44.671875-42.910156 85.417969-25.984374 114.734375 13.882812 24.046875 43.222656 36.695312 83.972656 36.695312 8.925781 0 18.402344-.605468 28.382812-1.835937 5.503906-.675781 11.113282-1.542969 16.804688-2.574219 1.953125 5.445313 4.007812 10.738282 6.171875 15.84375 21.847656 51.503906 52.519531 79.867188 86.371093 79.867188 33.847657 0 64.519532-28.363282 86.367188-79.867188 2.167969-5.105468 4.21875-10.398437 6.171875-15.84375 5.695313 1.03125 11.304687 1.898438 16.808594 2.574219 9.980469 1.230469 19.453125 1.835937 28.382812 1.835937 40.742188 0 70.089844-12.652343 83.972657-36.695312 16.921874-29.316406 7.695312-70.0625-25.988282-114.734375-3.339844-4.425781-6.894531-8.851563-10.632812-13.265625zm9.867187-112.554688c10.984375 19.027344-.40625 52.519532-31.050781 89.71875-14.851562-14.722656-31.710938-29.121093-50.152344-42.835937-2.652344-22.828125-6.695312-44.628906-12.019531-64.851563 47.535156-7.9375 82.238281-1.054687 93.222656 17.96875zm-151.65625 187.542969c-14.382812 8.304688-28.882812 15.832031-43.308593 22.523438-14.132813-6.5625-28.609376-14.054688-43.277344-22.523438-14.386719-8.304687-28.152344-17.097656-41.164063-26.242187-1.382812-15.523438-2.132812-31.804688-2.132812-48.746094s.75-33.222656 2.132812-48.746094c13.011719-9.144531 26.78125-17.9375 41.164063-26.242187 14.671875-8.46875 29.144531-15.960938 43.277344-22.523438 14.425781 6.695313 28.925781 14.21875 43.308593 22.523438 14.679688 8.472656 28.410157 17.265625 41.164063 26.230469 1.382812 15.523437 2.132812 31.808593 2.132812 48.757812s-.75 33.234375-2.132812 48.757812c-12.757813 8.964844-26.488282 17.757813-41.164063 26.230469zm35.824219 14.429688c-2.140625 12.171875-4.691406 23.691406-7.582031 34.488281-10.796875-2.894531-22.046875-6.449219-33.65625-10.679688 6.972656-3.65625 13.933593-7.484374 20.859375-11.484374 6.925781-4 13.722656-8.113282 20.378906-12.324219zm-116.996094 23.808593c-11.414062 4.164063-22.667968 7.742188-33.65625 10.691407-2.890625-10.800781-5.441406-22.324219-7.582031-34.5 6.652344 4.210937 13.449219 8.324219 20.375 12.324219 6.925781 3.996093 13.886719 7.824218 20.863281 11.484374zm-79.121094-89.414062c-9.316406-7.808594-18.042968-15.765625-26.09375-23.8125 8.050782-8.046875 16.777344-16.003906 26.09375-23.8125-.316406 7.871094-.480468 15.8125-.480468 23.8125s.164062 15.941406.480468 23.8125zm37.882813-113.230469c2.140625-12.175781 4.691406-23.699219 7.582031-34.5 10.988282 2.949219 22.242188 6.527344 33.65625 10.691407-6.972656 3.660156-13.933594 7.488281-20.863281 11.484374-6.925781 4-13.71875 8.113282-20.375 12.324219zm116.996094-23.808593c11.609375-4.230469 22.859375-7.785157 33.65625-10.679688 2.890625 10.796875 5.4375 22.316406 7.582031 34.488281-6.65625-4.210937-13.453125-8.324219-20.378906-12.324219-6.925782-3.996093-13.886719-7.824218-20.859375-11.484374zm79.117187 89.417968c9.46875 7.9375 18.171875 15.90625 26.078125 23.808594-7.90625 7.902344-16.609375 15.871094-26.078125 23.808594.320313-7.871094.484375-15.8125.484375-23.808594s-.164062-15.9375-.484375-23.808594zm-116.996094-201.300781c21.96875 0 45.277344 26.613281 62.175782 71.75-20.179688 5.5-41.078125 12.898437-62.175782 22.015625-21.097656-9.117188-42-16.515625-62.175781-22.015625 16.894531-45.136719 40.207031-71.75 62.175781-71.75zm-194.949218 112.554687c10.179687-17.632812 40.003906-24.792968 81.828125-19.644531 3.746093.460938 7.550781 1.023438 11.398437 1.667969-5.328125 20.222656-9.371094 42.027344-12.023437 64.859375-18.445313 13.714844-35.308594 28.121094-50.160157 42.84375-2.484374-3.011719-4.875-6.023437-7.144531-9.035156-25.367187-33.648438-34.078125-63.058594-23.898437-80.691407zm81.828125 244.753907c-41.824219 5.148437-71.648438-2.011719-81.828125-19.644531-10.179688-17.632813-1.46875-47.042969 23.898437-80.691407 2.269531-3.011719 4.660157-6.023437 7.144531-9.035156 14.851563 14.722656 31.714844 29.128906 50.160157 42.84375 2.652343 22.832031 6.695312 44.636719 12.023437 64.859375-3.847656.644531-7.652344 1.210938-11.398437 1.667969zm113.121093 92.910156c-21.96875 0-45.28125-26.613281-62.175781-71.75 20.175781-5.5 41.078125-12.898437 62.175781-22.015625 21.097657 9.117188 42 16.515625 62.175782 22.015625-16.898438 45.136719-40.207032 71.75-62.175782 71.75zm194.949219-112.554687c-10.984375 19.023437-45.6875 25.90625-93.226562 17.96875 5.324219-20.222657 9.367187-42.023438 12.023437-64.851563 18.441406-13.714844 35.300782-28.113281 50.152344-42.835937 30.644531 37.199218 42.035156 70.691406 31.050781 89.71875zm0 0" fill="#fc5356"/><path d="m229.976562 311.699219c-30.714843 0-55.699218-24.988281-55.699218-55.699219s24.984375-55.699219 55.699218-55.699219c30.710938 0 55.699219 24.988281 55.699219 55.699219s-24.988281 55.699219-55.699219 55.699219zm0 0" fill="#2b75ad"/><path d="m451.679688 128c-16.925782-29.3125-56.828126-41.695312-112.355469-34.859375-5.503907.675781-11.113281 1.542969-16.808594 2.574219-1.949219-5.445313-4.003906-10.738282-6.171875-15.84375-21.847656-51.507813-52.519531-79.871094-86.367188-79.871094h-.003906v30.890625h.003906c21.96875 0 45.277344 26.613281 62.175782 71.75-20.179688 5.5-41.078125 12.898437-62.175782 22.015625h-.003906v33.835938c14.421875 6.691406 28.917969 14.21875 43.296875 22.519531 14.679688 8.472656 28.40625 17.265625 41.160157 26.230469 1.386718 15.523437 2.136718 31.808593 2.136718 48.757812s-.75 33.234375-2.136718 48.757812c-12.753907 8.964844-26.480469 17.757813-41.160157 26.230469-14.378906 8.300781-28.875 15.828125-43.296875 22.519531v33.835938h.003906c21.097657 9.117188 42 16.515625 62.175782 22.015625-16.898438 45.136719-40.207032 71.75-62.175782 71.75h-.003906v30.890625h.003906c33.847657 0 64.519532-28.363281 86.367188-79.871094 2.167969-5.105468 4.21875-10.398437 6.171875-15.84375 5.695313 1.03125 11.304687 1.898438 16.808594 2.578125 9.980469 1.226563 19.453125 1.835938 28.382812 1.835938 40.742188 0 70.089844-12.65625 83.972657-36.699219 16.921874-29.3125 7.695312-70.058594-25.988282-114.734375-3.335937-4.425781-6.894531-8.851563-10.632812-13.265625 3.738281-4.414062 7.296875-8.835938 10.632812-13.265625 33.683594-44.675781 42.910156-85.421875 25.988282-114.734375zm-162.964844 26.257812c-6.925782-3.996093-13.886719-7.824218-20.859375-11.484374 11.609375-4.230469 22.859375-7.785157 33.65625-10.679688 2.890625 10.796875 5.4375 22.316406 7.582031 34.488281-6.65625-4.210937-13.453125-8.324219-20.378906-12.324219zm12.796875 225.648438c-10.796875-2.898438-22.046875-6.449219-33.65625-10.679688 6.972656-3.660156 13.933593-7.488281 20.859375-11.484374 6.929687-4 13.722656-8.113282 20.378906-12.324219-2.140625 12.171875-4.691406 23.691406-7.582031 34.488281zm123.414062-11.351562c-10.984375 19.023437-45.6875 25.90625-93.226562 17.96875 5.324219-20.222657 9.367187-42.023438 12.023437-64.851563 18.441406-13.714844 35.300782-28.113281 50.152344-42.835937 30.644531 37.199218 42.035156 70.691406 31.050781 89.71875zm-77.953125-136.363282c9.46875 7.9375 18.171875 15.90625 26.078125 23.808594-7.90625 7.902344-16.609375 15.871094-26.078125 23.808594.320313-7.871094.484375-15.8125.484375-23.808594s-.164062-15.9375-.484375-23.808594zm46.902344.972656c-14.851562-14.722656-31.710938-29.121093-50.152344-42.835937-2.652344-22.828125-6.695312-44.628906-12.019531-64.851563 47.535156-7.9375 82.238281-1.054687 93.222656 17.96875 10.984375 19.027344-.40625 52.519532-31.050781 89.71875zm0 0" fill="#f70b57"/><path d="m229.976562 200.300781h-.003906v111.398438h.003906c30.710938 0 55.699219-24.988281 55.699219-55.699219s-24.988281-55.699219-55.699219-55.699219zm0 0" fill="#13496b"/></svg>