<svg height="512pt" viewBox="-18 0 512 512" width="512pt" xmlns="http://www.w3.org/2000/svg"><path d="m326.570312 79.472656c-26.089843-16.664062-56.726562-25.472656-88.59375-25.472656-31.871093 0-62.503906 8.808594-88.59375 25.472656-24.503906 15.652344-44.589843 37.828125-58.082031 64.125-13.492187 26.300782-19.792969 55.546875-18.214843 84.582032 1.675781 30.914062 12.390624 60.933593 30.976562 86.824218l71.914062 100.164063v58.332031c0 21.230469 17.269532 38.5 38.5 38.5h47c21.226563 0 38.5-17.269531 38.5-38.5v-58.332031l71.914063-100.164063c18.589844-25.890625 29.300781-55.910156 30.976563-86.824218 1.578124-29.035157-4.722657-58.28125-18.214844-84.578126-13.492188-26.300781-33.578125-48.476562-58.082032-64.128906zm-46.59375 342.476563v20.050781h-84v-20.050781zm-18.5 70.050781h-47c-10.203124 0-18.5-8.300781-18.5-18.5v-11.5h84v11.5c0 10.199219-8.300781 18.5-18.5 18.5zm94.167969-188.660156-70.800781 98.609375h-36.867188v-65.820313c0-5.523437-4.476562-10-10-10-5.523437 0-10 4.476563-10 10v65.820313h-36.871093l-70.800781-98.609375c-32.3125-45.011719-36.503907-101.3125-11.210938-150.609375s73.472656-78.730469 128.882812-78.730469c55.40625 0 103.585938 29.433594 128.878907 78.730469 25.296875 49.296875 21.105469 105.597656-11.210938 150.609375zm0 0"/><path d="m237.976562 41c5.523438 0 10-4.476562 10-10v-21c0-5.523438-4.476562-10-10-10-5.523437 0-10 4.476562-10 10v21c0 5.523438 4.476563 10 10 10zm0 0"/><path d="m423.535156 52.417969c-3.902344-3.90625-10.234375-3.90625-14.140625 0l-28.835937 28.832031c-3.902344 3.90625-3.90625 10.238281 0 14.144531 1.953125 1.949219 4.511718 2.925781 7.074218 2.925781 2.558594 0 5.117188-.976562 7.070313-2.925781l28.832031-28.835937c3.90625-3.90625 3.90625-10.238282 0-14.140625zm0 0"/><path d="m38.976562 227.976562h-28.976562c-5.523438 0-10 4.476563-10 10 0 5.519532 4.476562 10 10 10h28.976562c5.523438 0 10-4.480468 10-10 0-5.523437-4.476562-10-10-10zm0 0"/><path d="m465.953125 227.976562h-30.976563c-5.523437 0-10 4.476563-10 10 0 5.519532 4.476563 10 10 10h30.976563c5.523437 0 10-4.480468 10-10 0-5.523437-4.476563-10-10-10zm0 0"/><path d="m84.988281 94.988281c2.558594 0 5.117188-.976562 7.070313-2.929687 3.90625-3.90625 3.90625-10.238282 0-14.144532l-25.089844-25.085937c-3.902344-3.90625-10.234375-3.90625-14.140625 0-3.90625 3.902344-3.90625 10.234375 0 14.140625l25.089844 25.089844c1.953125 1.953125 4.511719 2.929687 7.070312 2.929687zm0 0"/><path d="m237.976562 190c-20.953124 0-38 17.046875-38 38s17.046876 38 38 38c20.953126 0 38-17.046875 38-38s-17.046874-38-38-38zm0 56c-9.925781 0-18-8.074219-18-18s8.074219-18 18-18c9.925782 0 18 8.074219 18 18s-8.074218 18-18 18zm0 0"/><path d="m237.976562 286.128906c-2.628906 0-5.210937 1.0625-7.070312 2.929688-1.859375 1.863281-2.929688 4.433594-2.929688 7.070312 0 2.632813 1.070313 5.210938 2.929688 7.070313s4.441406 2.929687 7.070312 2.929687c2.628907 0 5.210938-1.070312 7.070313-2.929687s2.929687-4.4375 2.929687-7.070313c0-2.640625-1.070312-5.207031-2.929687-7.070312-1.859375-1.871094-4.441406-2.929688-7.070313-2.929688zm0 0"/><path d="m281.527344 101.566406c-5.1875-1.890625-10.929688.785156-12.820313 5.972656-1.890625 5.191407.785157 10.929688 5.972657 12.820313 24.28125 8.847656 44.375 26.828125 56.589843 50.628906 10.609375 20.683594 14.214844 43.257813 10.425781 65.292969-.9375 5.441406 2.714844 10.613281 8.160157 11.550781.574219.097657 1.144531.144531 1.707031.144531 4.777344 0 9.003906-3.4375 9.84375-8.304687 4.53125-26.339844.261719-53.246094-12.34375-77.8125-14.519531-28.300781-38.503906-49.714844-67.535156-60.292969zm0 0"/><path d="m237.976562 114c2.628907 0 5.210938-1.070312 7.070313-2.929688 1.859375-1.859374 2.929687-4.441406 2.929687-7.070312s-1.070312-5.210938-2.929687-7.070312c-1.859375-1.859376-4.441406-2.929688-7.070313-2.929688-2.628906 0-5.210937 1.070312-7.070312 2.929688-1.859375 1.859374-2.929688 4.441406-2.929688 7.070312s1.070313 5.210938 2.929688 7.070312c1.859375 1.859376 4.441406 2.929688 7.070312 2.929688zm0 0"/></svg>