<svg id="Layer_3" enable-background="new 0 0 64 64" height="512" viewBox="0 0 64 64" width="512" xmlns="http://www.w3.org/2000/svg"><g><path d="m56.293 33.293-23.293-23.293-3-8 8 3 23.293 23.293c.453.453.707 1.067.707 1.707 0 .64-.254 1.254-.707 1.707l-1.586 1.586c-.453.453-1.067.707-1.707.707-.64 0-1.254-.254-1.707-.707z" fill="#ef7e68"/><path d="m53 30 3.293 3.293c.453.453 1.067.707 1.707.707s1.254-.254 1.707-.707l1.586-1.586c.453-.453.707-1.067.707-1.707s-.254-1.254-.707-1.707l-3.293-3.293z" fill="#f5b2a4"/><path d="m30 2 3 8 5-5z" fill="#f5b2a4"/><path d="m19.707 12.707 31.293 31.293 8 3-3-8-31.293-31.293c-.453-.453-1.067-.707-1.707-.707-.64 0-1.254.254-1.707.707l-1.586 1.586c-.453.453-.707 1.067-.707 1.707 0 .64.254 1.254.707 1.707z" fill="#8892a0"/><path d="m59 47-3-8-5 5z" fill="#444950"/><path d="m28 11-3.293-3.293c-.453-.453-1.067-.707-1.707-.707s-1.254.254-1.707.707l-1.586 1.586c-.453.453-.707 1.067-.707 1.707s.254 1.254.707 1.707l3.293 3.293z" fill="#444950"/><path d="m2 2v60h60z" fill="#f5b953"/><path d="m2 2v55.875c.825.077 1.657.125 2.5.125 13.894 0 25.538-10.585 28.667-24.833z" fill="#f9d598"/><path d="m9 55v-34l34 34z" fill="#fff"/><g><path d="m7.379 11.5h4.243v2h-4.243z" fill="#8892a0" transform="matrix(.707 -.707 .707 .707 -6.056 10.379)"/></g><g><path d="m10.379 14.5h4.243v2h-4.243z" fill="#8892a0" transform="matrix(.707 -.707 .707 .707 -7.299 13.379)"/></g><g><path d="m13.379 17.5h4.243v2h-4.243z" fill="#8892a0" transform="matrix(.707 -.707 .707 .707 -8.542 16.379)"/></g><g><path d="m16.379 20.5h4.243v2h-4.243z" fill="#8892a0" transform="matrix(.707 -.707 .707 .707 -9.784 19.379)"/></g><g><path d="m19.379 23.5h4.243v2h-4.243z" fill="#8892a0" transform="matrix(.707 -.707 .707 .707 -11.027 22.379)"/></g><g><path d="m22.379 26.5h4.243v2h-4.243z" fill="#8892a0" transform="matrix(.707 -.707 .707 .707 -12.27 25.379)"/></g><g><path d="m25.379 29.5h4.243v2h-4.243z" fill="#8892a0" transform="matrix(.707 -.707 .707 .707 -13.512 28.379)"/></g><g><path d="m28.379 32.5h4.243v2h-4.243z" fill="#8892a0" transform="matrix(.707 -.707 .707 .707 -14.755 31.379)"/></g><g><path d="m31.379 35.5h4.243v2h-4.243z" fill="#8892a0" transform="matrix(.707 -.707 .707 .707 -15.998 34.379)"/></g><g><path d="m34.379 38.5h4.243v2h-4.243z" fill="#8892a0" transform="matrix(.707 -.707 .707 .707 -17.24 37.379)"/></g><g><path d="m37.379 41.5h4.243v2h-4.243z" fill="#8892a0" transform="matrix(.707 -.707 .707 .707 -18.483 40.379)"/></g><g><path d="m40.379 44.5h4.243v2h-4.243z" fill="#8892a0" transform="matrix(.707 -.707 .707 .707 -19.725 43.379)"/></g><g><path d="m43.379 47.5h4.243v2h-4.243z" fill="#8892a0" transform="matrix(.707 -.707 .707 .707 -20.968 46.379)"/></g><g><path d="m46.379 50.5h4.243v2h-4.243z" fill="#8892a0" transform="matrix(.707 -.707 .707 .707 -22.211 49.379)"/></g><g><path d="m49.379 53.5h4.243v2h-4.243z" fill="#8892a0" transform="matrix(.707 -.707 .707 .707 -23.453 52.379)"/></g></g></svg>